<mxfile host="Electron" agent="Mozilla/5.0 (Macintosh; Intel Mac OS X 10_15_7) AppleWebKit/537.36 (KHTML, like Gecko) draw.io/26.1.1 Chrome/132.0.6834.210 Electron/34.3.3 Safari/537.36" version="26.1.1" pages="3">
  <diagram name="Single Account" id="PI6IY4-M9EGgJhDRJ5L5">
    <mxGraphModel dx="1380" dy="1041" grid="1" gridSize="10" guides="1" tooltips="1" connect="1" arrows="1" fold="1" page="1" pageScale="1" pageWidth="850" pageHeight="1100" math="0" shadow="0">
      <root>
        <mxCell id="0" />
        <mxCell id="1" parent="0" />
        <mxCell id="us9aMIRkfCTpu5LGNh5M-7" value="&amp;nbsp; &amp;nbsp; &amp;nbsp; &amp;nbsp; &amp;nbsp; &amp;nbsp; &amp;nbsp; AWS Account" style="rounded=0;whiteSpace=wrap;html=1;fillColor=none;verticalAlign=top;align=left;strokeWidth=2;" vertex="1" parent="1">
          <mxGeometry x="480" y="120" width="320" height="320" as="geometry" />
        </mxCell>
        <mxCell id="us9aMIRkfCTpu5LGNh5M-14" value="&amp;nbsp; &amp;nbsp; &amp;nbsp; &amp;nbsp; &amp;nbsp; &amp;nbsp; &amp;nbsp; GitHub" style="rounded=0;whiteSpace=wrap;html=1;fillColor=none;strokeWidth=2;verticalAlign=top;align=left;" vertex="1" parent="1">
          <mxGeometry x="80" y="120" width="320" height="320" as="geometry" />
        </mxCell>
        <mxCell id="us9aMIRkfCTpu5LGNh5M-6" value="" style="sketch=0;outlineConnect=0;fontColor=#232F3E;gradientColor=none;fillColor=#E7157B;strokeColor=none;dashed=0;verticalLabelPosition=bottom;verticalAlign=top;align=center;html=1;fontSize=12;fontStyle=0;aspect=fixed;pointerEvents=1;shape=mxgraph.aws4.organizations_account2;" vertex="1" parent="1">
          <mxGeometry x="480" y="120" width="40" height="40" as="geometry" />
        </mxCell>
        <mxCell id="us9aMIRkfCTpu5LGNh5M-8" value="" style="dashed=0;outlineConnect=0;html=1;align=center;labelPosition=center;verticalLabelPosition=bottom;verticalAlign=top;shape=mxgraph.weblogos.github" vertex="1" parent="1">
          <mxGeometry x="80" y="120" width="40" height="40" as="geometry" />
        </mxCell>
        <mxCell id="us9aMIRkfCTpu5LGNh5M-11" value="Assume" style="edgeStyle=orthogonalEdgeStyle;rounded=0;orthogonalLoop=1;jettySize=auto;html=1;strokeWidth=2;" edge="1" parent="1" source="us9aMIRkfCTpu5LGNh5M-9" target="us9aMIRkfCTpu5LGNh5M-10">
          <mxGeometry relative="1" as="geometry" />
        </mxCell>
        <mxCell id="us9aMIRkfCTpu5LGNh5M-9" value="OIDC Provider" style="sketch=0;outlineConnect=0;fontColor=#232F3E;gradientColor=none;fillColor=#DD344C;strokeColor=none;dashed=0;verticalLabelPosition=bottom;verticalAlign=top;align=center;html=1;fontSize=12;fontStyle=0;aspect=fixed;pointerEvents=1;shape=mxgraph.aws4.identity_access_management_iam_roles_anywhere;strokeWidth=2;" vertex="1" parent="1">
          <mxGeometry x="520" y="240" width="80" height="80" as="geometry" />
        </mxCell>
        <mxCell id="us9aMIRkfCTpu5LGNh5M-10" value="IAM Role" style="sketch=0;outlineConnect=0;fontColor=#232F3E;gradientColor=none;fillColor=#DD344C;strokeColor=none;dashed=0;verticalLabelPosition=bottom;verticalAlign=top;align=center;html=1;fontSize=12;fontStyle=0;pointerEvents=1;shape=mxgraph.aws4.role;strokeWidth=2;" vertex="1" parent="1">
          <mxGeometry x="680" y="240" width="80" height="80" as="geometry" />
        </mxCell>
        <mxCell id="us9aMIRkfCTpu5LGNh5M-16" value="Trust" style="edgeStyle=orthogonalEdgeStyle;rounded=0;orthogonalLoop=1;jettySize=auto;html=1;exitX=1;exitY=0.5;exitDx=0;exitDy=0;startArrow=classic;startFill=1;strokeWidth=2;" edge="1" parent="1" source="us9aMIRkfCTpu5LGNh5M-12" target="us9aMIRkfCTpu5LGNh5M-9">
          <mxGeometry relative="1" as="geometry" />
        </mxCell>
        <mxCell id="us9aMIRkfCTpu5LGNh5M-12" value="GitHub Action" style="shape=image;verticalLabelPosition=bottom;labelBackgroundColor=default;verticalAlign=top;aspect=fixed;imageAspect=0;editableCssRules=.*;image=data:image/svg+xml,PHN2ZyB4bWxucz0iaHR0cDovL3d3dy53My5vcmcvMjAwMC9zdmciIHZpZXdCb3g9IjAgMCA5NiA5NiIgd2lkdGg9Ijk2IiBoZWlnaHQ9Ijk2Ij48cGF0aCBmaWxsPSIjMjE4YWZmIiBkPSJNMTcuODcgMGg0LjM4cTYuNDggMS4wNSAxMS4wNyA1LjE0YzEzLjA5IDExLjY0IDUuNDUgMzQuMy0xMi4yIDM0LjY4YS44My44Mi0xMS42IDAgMC0uNzUgMS4xM3EyLjk2IDcuNDYgMTEuMTMgNy4wNC41Ny0uMDMuNzEtLjU4YzMuODktMTUuMjQgMjMuODctMTUuMTkgMjcuNi4wNnEuMTMuNTYuNy41Nmw3LjIyLS4wMnEuNDUgMCAuNTMtLjQ0YzIuOTktMTUuODIgMjQuNTctMTUuMSAyNy43NC42djMuNzZjLTMuMiAxNS41NS0yNC41MSAxNi4yNC0yNy43Ni42M3EtLjEyLS41Ny0uNy0uNTdsLTcuMy0uMDFhLjUzLjUzIDAgMCAwLS41Mi40M2MtMi44NSAxNS40MS0yNC4yNCAxNS4zMS0yNy40OC4wNHEtLjEyLS41Ny0uNy0uNTItNi4zNi41Ny0xMS4wNy0zLjU1LS41LS40NC0uNDkuMjIuMDUgOC4yLjA0IDE2LjY1IDAgNS41OCAxLjM2IDguMjggMi44MiA1LjYgOS45MyA2LjU1LjYzLjA4LjgtLjU0IDIuNjQtOS41NyAxMS4zLTExLjIxQzYxLjU3IDY0Ljg5IDY2Ljk5IDkyLjEyIDQ3LjgyIDk2aC0zLjc3cS05LjY0LTIuMTEtMTEuODItMTEuNDItLjExLS40OS0uNi0uNTMtMTAuNTItMS4wMy0xNC4yMy05LjY3LTEuMzctMy4xOS0xLjM5LTkuMTktLjAyLTEyLjYuMDMtMjUuMjJhLjM0LjM0IDAgMCAwLS4yNS0uMzNRMi4zNyAzNS45IDAgMjIuMTJ2LTQuMzdRMi44NCAyLjc1IDE3Ljg3IDB6bTE4LjEyIDIwLjAxYTE1Ljk5IDE1Ljk5IDAgMSAwLTMxLjk4IDAgMTUuOTkgMTUuOTkgMCAxIDAgMzEuOTggMHpNNTYgNTBhMTAgMTAgMCAxIDAtMjAgMCAxMCAxMCAwIDEgMCAyMCAwem0zNS45OCAwQTkuOTkgOS45OSAwIDEgMCA3MiA1MGE5Ljk5IDkuOTkgMCAxIDAgMTkuOTggMHpNNTUuOTkgODJhOS45OSA5Ljk5IDAgMSAwLTE5Ljk4IDAgOS45OSA5Ljk5IDAgMSAwIDE5Ljk4IDB6TTE3LjY1IDkuOTRsMTEuMTUgN2EzLjY4IDMuNjggMCAwIDEtLjAxIDYuMjRsLTExLjE4IDYuOTZhMy42OCAzLjY4IDAgMCAxLTUuNjItMy4xM2wuMDItMTMuOTZhMy42OCAzLjY4IDAgMCAxIDUuNjQtMy4xMXptLTEuMTkgMy45N2EuMzEuMzEgMCAwIDAtLjQ4LjI2djExLjdhLjMxLjMxIDAgMCAwIC40OC4yNmw5LjM1LTUuODVhLjMxLjMxIDAgMCAwIDAtLjUybC05LjM1LTUuODV6TTQ0LjMgNTAuMTZsNC4zLTQuMzhhMS45OSAxLjk4IDQ2LjEgMCAxIDIuODkuMDZsLjI4LjMyYTEuNjQgMS42NCAwIDAgMS0uMDYgMi4yNmwtNi44MyA2Ljc3YTEuMzMgMS4zMyAwIDAgMS0xLjg4IDBsLTMuNzQtMy43M2ExLjUxIDEuNTEgMCAwIDEgLjAzLTIuMTdsLjU5LS41NnExLjE0LTEuMDggMi4yNC4wNGwxLjM2IDEuMzlhLjU4LjU4IDAgMCAwIC44MiAwem0zNi4wMi0uMDFsNC4zLTQuMzlxMS41MS0xLjU0IDIuODcuMTJsLjI4LjMzYTEuNjYgMS42NS00Mi4zIDAgMS0uMTEgMi4yM2wtNi41NiA2LjU1cS0xLjE0IDEuMTQtMi4yOCAwbC0zLjQ0LTMuNDVhMS42NCAxLjYzLTQ1LjggMCAxLS4wMy0yLjI3bC40MS0uNDRhMS42NyAxLjY2LTQ1LjggMCAxIDIuMzktLjA0bDEuMzcgMS4zN3EuNDEuNC44LS4wMXoiLz48ZyBmaWxsPSIjN2JiYmZmIj48cGF0aCBkPSJNOTYgODAuMTd2My44MVE5My43NyA5My45IDgzLjg4IDk2aC0zLjgzcS05LjYzLTIuMTEtMTEuODctMTEuNDlhLjcuNyAwIDAgMC0uNTgtLjUzcS0uNDgtLjA3LS45MS4wNGMtMy4yMS43OC00LjEzLTQuMzQuNTgtMy45NGEuODguODggMCAwIDAgLjkyLS42NWM0LjE4LTE1LjcxIDI0LjU3LTE0Ljk5IDI3LjgxLjc0ek05MS45NyA4MmE5Ljk4IDkuOTggMCAwIDAtMTkuOTYgMCA5Ljk4IDkuOTggMCAxIDAgMTkuOTYgMHoiLz48Y2lyY2xlIHI9IjEuOTgiIGN5PSI4Mi4wMSIgY3g9IjQyIi8+PGNpcmNsZSByPSIyIiBjeT0iODIuMDEiIGN4PSI1MC4wMSIvPjwvZz48L3N2Zz4=;strokeWidth=2;" vertex="1" parent="1">
          <mxGeometry x="280" y="240" width="80" height="80" as="geometry" />
        </mxCell>
        <mxCell id="us9aMIRkfCTpu5LGNh5M-18" value="Trigger" style="edgeStyle=orthogonalEdgeStyle;rounded=0;orthogonalLoop=1;jettySize=auto;html=1;entryX=0;entryY=0.5;entryDx=0;entryDy=0;strokeWidth=2;" edge="1" parent="1" source="us9aMIRkfCTpu5LGNh5M-13" target="us9aMIRkfCTpu5LGNh5M-12">
          <mxGeometry relative="1" as="geometry" />
        </mxCell>
        <mxCell id="us9aMIRkfCTpu5LGNh5M-13" value="Repository" style="shape=image;verticalLabelPosition=bottom;labelBackgroundColor=default;verticalAlign=top;imageAspect=0;editableCssRules=.*;image=data:image/svg+xml,PHN2ZyB4bWxucz0iaHR0cDovL3d3dy53My5vcmcvMjAwMC9zdmciIHZpZXdCb3g9IjQuMDI5ODE1MTk2OTkwOTY3IDAgNTUuOTMwMzcwMzMwODEwNTUgNjQiIHdpZHRoPSI1NS45MzAzNzAzMzA4MTA1NSIgaGVpZ2h0PSI2NCI+PHBhdGggZD0iTTQuMTUgMGg1NS43OGwuMDMgNTUuNDlxLjAxLjUxLS41MS41MUgzMi41MWEuNTIuNTEtODkuNCAwIDAtLjUxLjUxTDMxLjk1IDY0aC0zLjgybC0zLjc0LTMuN2EuNS41IDAgMCAwLS43MSAwbC0zLjcgMy43SDE2bC4wMS03LjJxMC0uOC0uOC0uOEg0LjU1cS0uNTMgMC0uNTItLjUzTDQuMTUgMFpNNTIgOS4wMUExLjAxIDEuMDEgMCAwIDAgNTAuOTkgOEgxNy4wMUExLjAxIDEuMDEgMCAwIDAgMTYgOS4wMXYzNy45OEExLjAxIDEuMDEgMCAwIDAgMTcuMDEgNDhoMzMuOThBMS4wMSAxLjAxIDAgMCAwIDUyIDQ2Ljk5VjkuMDFaIi8+PGNpcmNsZSByPSIzLjk3IiBjeT0iMTYuMDMiIGN4PSIyMy45OSIvPjxjaXJjbGUgcj0iMy45NyIgY3k9IjI4LjAxIiBjeD0iMjQuMDEiLz48Y2lyY2xlIHI9IjMuOTYiIGN5PSIzOS45OSIgY3g9IjI0Ii8+PC9zdmc+;strokeWidth=2;" vertex="1" parent="1">
          <mxGeometry x="120" y="240" width="70" height="80" as="geometry" />
        </mxCell>
        <mxCell id="us9aMIRkfCTpu5LGNh5M-17" value="IAM Policy&amp;nbsp;&lt;span style=&quot;background-color: transparent; color: light-dark(rgb(35, 47, 62), rgb(189, 199, 212));&quot;&gt;(Permission)&lt;/span&gt;" style="sketch=0;outlineConnect=0;fontColor=#232F3E;gradientColor=none;fillColor=#DD344C;strokeColor=none;dashed=0;verticalLabelPosition=bottom;verticalAlign=top;align=center;html=1;fontSize=12;fontStyle=0;pointerEvents=1;shape=mxgraph.aws4.permissions;" vertex="1" parent="1">
          <mxGeometry x="700" y="180" width="40" height="40" as="geometry" />
        </mxCell>
        <mxCell id="us9aMIRkfCTpu5LGNh5M-19" value="Single Account Setup" style="text;html=1;align=center;verticalAlign=middle;whiteSpace=wrap;rounded=0;fillColor=#f5f5f5;fontColor=#333333;strokeColor=#666666;strokeWidth=2;fontStyle=1" vertex="1" parent="1">
          <mxGeometry x="80" y="40" width="720" height="40" as="geometry" />
        </mxCell>
      </root>
    </mxGraphModel>
  </diagram>
  <diagram name="Multiple Accounts" id="izX75xmrWhUZdV4TpZAZ">
    <mxGraphModel dx="1208" dy="911" grid="1" gridSize="10" guides="1" tooltips="1" connect="1" arrows="1" fold="1" page="1" pageScale="1" pageWidth="850" pageHeight="1100" math="0" shadow="0">
      <root>
        <mxCell id="lvzrKJ4m8vPTo2asXBex-0" />
        <mxCell id="lvzrKJ4m8vPTo2asXBex-1" parent="lvzrKJ4m8vPTo2asXBex-0" />
        <mxCell id="lvzrKJ4m8vPTo2asXBex-2" value="&amp;nbsp; &amp;nbsp; &amp;nbsp; &amp;nbsp; &amp;nbsp; &amp;nbsp; &amp;nbsp; DevOps AWS Account" style="rounded=0;whiteSpace=wrap;html=1;fillColor=none;verticalAlign=top;align=left;strokeWidth=2;" vertex="1" parent="lvzrKJ4m8vPTo2asXBex-1">
          <mxGeometry x="480" y="160" width="320" height="320" as="geometry" />
        </mxCell>
        <mxCell id="lvzrKJ4m8vPTo2asXBex-3" value="&amp;nbsp; &amp;nbsp; &amp;nbsp; &amp;nbsp; &amp;nbsp; &amp;nbsp; &amp;nbsp; GitHub" style="rounded=0;whiteSpace=wrap;html=1;fillColor=none;strokeWidth=2;verticalAlign=top;align=left;" vertex="1" parent="lvzrKJ4m8vPTo2asXBex-1">
          <mxGeometry x="80" y="160" width="320" height="320" as="geometry" />
        </mxCell>
        <mxCell id="lvzrKJ4m8vPTo2asXBex-4" value="" style="sketch=0;outlineConnect=0;fontColor=#232F3E;gradientColor=none;fillColor=#E7157B;strokeColor=none;dashed=0;verticalLabelPosition=bottom;verticalAlign=top;align=center;html=1;fontSize=12;fontStyle=0;aspect=fixed;pointerEvents=1;shape=mxgraph.aws4.organizations_account2;strokeWidth=2;" vertex="1" parent="lvzrKJ4m8vPTo2asXBex-1">
          <mxGeometry x="480" y="160" width="40" height="40" as="geometry" />
        </mxCell>
        <mxCell id="lvzrKJ4m8vPTo2asXBex-5" value="" style="dashed=0;outlineConnect=0;html=1;align=center;labelPosition=center;verticalLabelPosition=bottom;verticalAlign=top;shape=mxgraph.weblogos.github;strokeWidth=2;" vertex="1" parent="lvzrKJ4m8vPTo2asXBex-1">
          <mxGeometry x="80" y="160" width="40" height="40" as="geometry" />
        </mxCell>
        <mxCell id="lvzrKJ4m8vPTo2asXBex-6" value="Assume" style="edgeStyle=orthogonalEdgeStyle;rounded=0;orthogonalLoop=1;jettySize=auto;html=1;strokeWidth=2;" edge="1" parent="lvzrKJ4m8vPTo2asXBex-1" source="lvzrKJ4m8vPTo2asXBex-7" target="lvzrKJ4m8vPTo2asXBex-8">
          <mxGeometry relative="1" as="geometry" />
        </mxCell>
        <mxCell id="lvzrKJ4m8vPTo2asXBex-7" value="OIDC Provider" style="sketch=0;outlineConnect=0;fontColor=#232F3E;gradientColor=none;fillColor=#DD344C;strokeColor=none;dashed=0;verticalLabelPosition=bottom;verticalAlign=top;align=center;html=1;fontSize=12;fontStyle=0;aspect=fixed;pointerEvents=1;shape=mxgraph.aws4.identity_access_management_iam_roles_anywhere;strokeWidth=2;" vertex="1" parent="lvzrKJ4m8vPTo2asXBex-1">
          <mxGeometry x="520" y="280" width="80" height="80" as="geometry" />
        </mxCell>
        <mxCell id="1SKhBmlnLrf_STiNpH_n-0" style="edgeStyle=orthogonalEdgeStyle;rounded=0;orthogonalLoop=1;jettySize=auto;html=1;strokeWidth=2;" edge="1" parent="lvzrKJ4m8vPTo2asXBex-1" source="lvzrKJ4m8vPTo2asXBex-8" target="2Bqv3pDrQlow7ZfSbJFv-11">
          <mxGeometry relative="1" as="geometry">
            <Array as="points">
              <mxPoint x="840" y="320" />
              <mxPoint x="840" y="180" />
            </Array>
          </mxGeometry>
        </mxCell>
        <mxCell id="1SKhBmlnLrf_STiNpH_n-1" style="edgeStyle=orthogonalEdgeStyle;rounded=0;orthogonalLoop=1;jettySize=auto;html=1;strokeWidth=2;" edge="1" parent="lvzrKJ4m8vPTo2asXBex-1" source="lvzrKJ4m8vPTo2asXBex-8" target="2Bqv3pDrQlow7ZfSbJFv-14">
          <mxGeometry relative="1" as="geometry">
            <Array as="points">
              <mxPoint x="840" y="320" />
              <mxPoint x="840" y="460" />
            </Array>
          </mxGeometry>
        </mxCell>
        <mxCell id="lvzrKJ4m8vPTo2asXBex-8" value="IAM Role" style="sketch=0;outlineConnect=0;fontColor=#232F3E;gradientColor=none;fillColor=#DD344C;strokeColor=none;dashed=0;verticalLabelPosition=bottom;verticalAlign=top;align=center;html=1;fontSize=12;fontStyle=0;pointerEvents=1;shape=mxgraph.aws4.role;strokeWidth=2;" vertex="1" parent="lvzrKJ4m8vPTo2asXBex-1">
          <mxGeometry x="680" y="280" width="80" height="80" as="geometry" />
        </mxCell>
        <mxCell id="lvzrKJ4m8vPTo2asXBex-9" value="Trust" style="edgeStyle=orthogonalEdgeStyle;rounded=0;orthogonalLoop=1;jettySize=auto;html=1;exitX=1;exitY=0.5;exitDx=0;exitDy=0;startArrow=classic;startFill=1;strokeWidth=2;" edge="1" parent="lvzrKJ4m8vPTo2asXBex-1" source="lvzrKJ4m8vPTo2asXBex-10" target="lvzrKJ4m8vPTo2asXBex-7">
          <mxGeometry relative="1" as="geometry" />
        </mxCell>
        <mxCell id="lvzrKJ4m8vPTo2asXBex-10" value="GitHub Action" style="shape=image;verticalLabelPosition=bottom;labelBackgroundColor=default;verticalAlign=top;aspect=fixed;imageAspect=0;editableCssRules=.*;image=data:image/svg+xml,PHN2ZyB4bWxucz0iaHR0cDovL3d3dy53My5vcmcvMjAwMC9zdmciIHZpZXdCb3g9IjAgMCA5NiA5NiIgd2lkdGg9Ijk2IiBoZWlnaHQ9Ijk2Ij48cGF0aCBmaWxsPSIjMjE4YWZmIiBkPSJNMTcuODcgMGg0LjM4cTYuNDggMS4wNSAxMS4wNyA1LjE0YzEzLjA5IDExLjY0IDUuNDUgMzQuMy0xMi4yIDM0LjY4YS44My44Mi0xMS42IDAgMC0uNzUgMS4xM3EyLjk2IDcuNDYgMTEuMTMgNy4wNC41Ny0uMDMuNzEtLjU4YzMuODktMTUuMjQgMjMuODctMTUuMTkgMjcuNi4wNnEuMTMuNTYuNy41Nmw3LjIyLS4wMnEuNDUgMCAuNTMtLjQ0YzIuOTktMTUuODIgMjQuNTctMTUuMSAyNy43NC42djMuNzZjLTMuMiAxNS41NS0yNC41MSAxNi4yNC0yNy43Ni42M3EtLjEyLS41Ny0uNy0uNTdsLTcuMy0uMDFhLjUzLjUzIDAgMCAwLS41Mi40M2MtMi44NSAxNS40MS0yNC4yNCAxNS4zMS0yNy40OC4wNHEtLjEyLS41Ny0uNy0uNTItNi4zNi41Ny0xMS4wNy0zLjU1LS41LS40NC0uNDkuMjIuMDUgOC4yLjA0IDE2LjY1IDAgNS41OCAxLjM2IDguMjggMi44MiA1LjYgOS45MyA2LjU1LjYzLjA4LjgtLjU0IDIuNjQtOS41NyAxMS4zLTExLjIxQzYxLjU3IDY0Ljg5IDY2Ljk5IDkyLjEyIDQ3LjgyIDk2aC0zLjc3cS05LjY0LTIuMTEtMTEuODItMTEuNDItLjExLS40OS0uNi0uNTMtMTAuNTItMS4wMy0xNC4yMy05LjY3LTEuMzctMy4xOS0xLjM5LTkuMTktLjAyLTEyLjYuMDMtMjUuMjJhLjM0LjM0IDAgMCAwLS4yNS0uMzNRMi4zNyAzNS45IDAgMjIuMTJ2LTQuMzdRMi44NCAyLjc1IDE3Ljg3IDB6bTE4LjEyIDIwLjAxYTE1Ljk5IDE1Ljk5IDAgMSAwLTMxLjk4IDAgMTUuOTkgMTUuOTkgMCAxIDAgMzEuOTggMHpNNTYgNTBhMTAgMTAgMCAxIDAtMjAgMCAxMCAxMCAwIDEgMCAyMCAwem0zNS45OCAwQTkuOTkgOS45OSAwIDEgMCA3MiA1MGE5Ljk5IDkuOTkgMCAxIDAgMTkuOTggMHpNNTUuOTkgODJhOS45OSA5Ljk5IDAgMSAwLTE5Ljk4IDAgOS45OSA5Ljk5IDAgMSAwIDE5Ljk4IDB6TTE3LjY1IDkuOTRsMTEuMTUgN2EzLjY4IDMuNjggMCAwIDEtLjAxIDYuMjRsLTExLjE4IDYuOTZhMy42OCAzLjY4IDAgMCAxLTUuNjItMy4xM2wuMDItMTMuOTZhMy42OCAzLjY4IDAgMCAxIDUuNjQtMy4xMXptLTEuMTkgMy45N2EuMzEuMzEgMCAwIDAtLjQ4LjI2djExLjdhLjMxLjMxIDAgMCAwIC40OC4yNmw5LjM1LTUuODVhLjMxLjMxIDAgMCAwIDAtLjUybC05LjM1LTUuODV6TTQ0LjMgNTAuMTZsNC4zLTQuMzhhMS45OSAxLjk4IDQ2LjEgMCAxIDIuODkuMDZsLjI4LjMyYTEuNjQgMS42NCAwIDAgMS0uMDYgMi4yNmwtNi44MyA2Ljc3YTEuMzMgMS4zMyAwIDAgMS0xLjg4IDBsLTMuNzQtMy43M2ExLjUxIDEuNTEgMCAwIDEgLjAzLTIuMTdsLjU5LS41NnExLjE0LTEuMDggMi4yNC4wNGwxLjM2IDEuMzlhLjU4LjU4IDAgMCAwIC44MiAwem0zNi4wMi0uMDFsNC4zLTQuMzlxMS41MS0xLjU0IDIuODcuMTJsLjI4LjMzYTEuNjYgMS42NS00Mi4zIDAgMS0uMTEgMi4yM2wtNi41NiA2LjU1cS0xLjE0IDEuMTQtMi4yOCAwbC0zLjQ0LTMuNDVhMS42NCAxLjYzLTQ1LjggMCAxLS4wMy0yLjI3bC40MS0uNDRhMS42NyAxLjY2LTQ1LjggMCAxIDIuMzktLjA0bDEuMzcgMS4zN3EuNDEuNC44LS4wMXoiLz48ZyBmaWxsPSIjN2JiYmZmIj48cGF0aCBkPSJNOTYgODAuMTd2My44MVE5My43NyA5My45IDgzLjg4IDk2aC0zLjgzcS05LjYzLTIuMTEtMTEuODctMTEuNDlhLjcuNyAwIDAgMC0uNTgtLjUzcS0uNDgtLjA3LS45MS4wNGMtMy4yMS43OC00LjEzLTQuMzQuNTgtMy45NGEuODguODggMCAwIDAgLjkyLS42NWM0LjE4LTE1LjcxIDI0LjU3LTE0Ljk5IDI3LjgxLjc0ek05MS45NyA4MmE5Ljk4IDkuOTggMCAwIDAtMTkuOTYgMCA5Ljk4IDkuOTggMCAxIDAgMTkuOTYgMHoiLz48Y2lyY2xlIHI9IjEuOTgiIGN5PSI4Mi4wMSIgY3g9IjQyIi8+PGNpcmNsZSByPSIyIiBjeT0iODIuMDEiIGN4PSI1MC4wMSIvPjwvZz48L3N2Zz4=;strokeWidth=2;" vertex="1" parent="lvzrKJ4m8vPTo2asXBex-1">
          <mxGeometry x="280" y="280" width="80" height="80" as="geometry" />
        </mxCell>
        <mxCell id="lvzrKJ4m8vPTo2asXBex-11" value="Trigger" style="edgeStyle=orthogonalEdgeStyle;rounded=0;orthogonalLoop=1;jettySize=auto;html=1;entryX=0;entryY=0.5;entryDx=0;entryDy=0;strokeWidth=2;" edge="1" parent="lvzrKJ4m8vPTo2asXBex-1" source="lvzrKJ4m8vPTo2asXBex-12" target="lvzrKJ4m8vPTo2asXBex-10">
          <mxGeometry relative="1" as="geometry" />
        </mxCell>
        <mxCell id="lvzrKJ4m8vPTo2asXBex-12" value="Repository" style="shape=image;verticalLabelPosition=bottom;labelBackgroundColor=default;verticalAlign=top;imageAspect=0;editableCssRules=.*;image=data:image/svg+xml,PHN2ZyB4bWxucz0iaHR0cDovL3d3dy53My5vcmcvMjAwMC9zdmciIHZpZXdCb3g9IjQuMDI5ODE1MTk2OTkwOTY3IDAgNTUuOTMwMzcwMzMwODEwNTUgNjQiIHdpZHRoPSI1NS45MzAzNzAzMzA4MTA1NSIgaGVpZ2h0PSI2NCI+PHBhdGggZD0iTTQuMTUgMGg1NS43OGwuMDMgNTUuNDlxLjAxLjUxLS41MS41MUgzMi41MWEuNTIuNTEtODkuNCAwIDAtLjUxLjUxTDMxLjk1IDY0aC0zLjgybC0zLjc0LTMuN2EuNS41IDAgMCAwLS43MSAwbC0zLjcgMy43SDE2bC4wMS03LjJxMC0uOC0uOC0uOEg0LjU1cS0uNTMgMC0uNTItLjUzTDQuMTUgMFpNNTIgOS4wMUExLjAxIDEuMDEgMCAwIDAgNTAuOTkgOEgxNy4wMUExLjAxIDEuMDEgMCAwIDAgMTYgOS4wMXYzNy45OEExLjAxIDEuMDEgMCAwIDAgMTcuMDEgNDhoMzMuOThBMS4wMSAxLjAxIDAgMCAwIDUyIDQ2Ljk5VjkuMDFaIi8+PGNpcmNsZSByPSIzLjk3IiBjeT0iMTYuMDMiIGN4PSIyMy45OSIvPjxjaXJjbGUgcj0iMy45NyIgY3k9IjI4LjAxIiBjeD0iMjQuMDEiLz48Y2lyY2xlIHI9IjMuOTYiIGN5PSIzOS45OSIgY3g9IjI0Ii8+PC9zdmc+;strokeWidth=2;" vertex="1" parent="lvzrKJ4m8vPTo2asXBex-1">
          <mxGeometry x="120" y="280" width="70" height="80" as="geometry" />
        </mxCell>
        <mxCell id="lvzrKJ4m8vPTo2asXBex-13" value="IAM Policy&amp;nbsp;&lt;span style=&quot;background-color: transparent; color: light-dark(rgb(35, 47, 62), rgb(189, 199, 212));&quot;&gt;(Permission)&lt;/span&gt;" style="sketch=0;outlineConnect=0;fontColor=#232F3E;gradientColor=none;fillColor=#DD344C;strokeColor=none;dashed=0;verticalLabelPosition=bottom;verticalAlign=top;align=center;html=1;fontSize=12;fontStyle=0;pointerEvents=1;shape=mxgraph.aws4.permissions;strokeWidth=2;" vertex="1" parent="lvzrKJ4m8vPTo2asXBex-1">
          <mxGeometry x="700" y="220" width="40" height="40" as="geometry" />
        </mxCell>
        <mxCell id="lvzrKJ4m8vPTo2asXBex-14" value="Multiple Account Setup" style="text;html=1;align=center;verticalAlign=middle;whiteSpace=wrap;rounded=0;fillColor=#f5f5f5;fontColor=#333333;strokeColor=#666666;strokeWidth=2;fontStyle=1" vertex="1" parent="lvzrKJ4m8vPTo2asXBex-1">
          <mxGeometry x="80" y="40" width="960" height="40" as="geometry" />
        </mxCell>
        <mxCell id="2Bqv3pDrQlow7ZfSbJFv-0" value="&amp;nbsp; &amp;nbsp; &amp;nbsp; &amp;nbsp; &amp;nbsp; &amp;nbsp; &amp;nbsp; Test AWS Account" style="rounded=0;whiteSpace=wrap;html=1;fillColor=none;verticalAlign=top;align=left;strokeWidth=2;" vertex="1" parent="lvzrKJ4m8vPTo2asXBex-1">
          <mxGeometry x="880" y="260" width="160" height="120" as="geometry" />
        </mxCell>
        <mxCell id="2Bqv3pDrQlow7ZfSbJFv-1" value="" style="sketch=0;outlineConnect=0;fontColor=#232F3E;gradientColor=none;fillColor=#E7157B;strokeColor=none;dashed=0;verticalLabelPosition=bottom;verticalAlign=top;align=center;html=1;fontSize=12;fontStyle=0;aspect=fixed;pointerEvents=1;shape=mxgraph.aws4.organizations_account2;strokeWidth=2;" vertex="1" parent="lvzrKJ4m8vPTo2asXBex-1">
          <mxGeometry x="880" y="260" width="30" height="30" as="geometry" />
        </mxCell>
        <mxCell id="2Bqv3pDrQlow7ZfSbJFv-4" value="IAM Role" style="sketch=0;outlineConnect=0;fontColor=#232F3E;gradientColor=none;fillColor=#DD344C;strokeColor=none;dashed=0;verticalLabelPosition=bottom;verticalAlign=top;align=center;html=1;fontSize=12;fontStyle=0;pointerEvents=1;shape=mxgraph.aws4.role;strokeWidth=2;" vertex="1" parent="lvzrKJ4m8vPTo2asXBex-1">
          <mxGeometry x="940" y="300" width="40" height="40" as="geometry" />
        </mxCell>
        <mxCell id="2Bqv3pDrQlow7ZfSbJFv-9" value="&amp;nbsp; &amp;nbsp; &amp;nbsp; &amp;nbsp; &amp;nbsp; &amp;nbsp; &amp;nbsp; Dev AWS Account" style="rounded=0;whiteSpace=wrap;html=1;fillColor=none;verticalAlign=top;align=left;strokeWidth=2;" vertex="1" parent="lvzrKJ4m8vPTo2asXBex-1">
          <mxGeometry x="880" y="120" width="160" height="120" as="geometry" />
        </mxCell>
        <mxCell id="2Bqv3pDrQlow7ZfSbJFv-10" value="" style="sketch=0;outlineConnect=0;fontColor=#232F3E;gradientColor=none;fillColor=#E7157B;strokeColor=none;dashed=0;verticalLabelPosition=bottom;verticalAlign=top;align=center;html=1;fontSize=12;fontStyle=0;aspect=fixed;pointerEvents=1;shape=mxgraph.aws4.organizations_account2;strokeWidth=2;" vertex="1" parent="lvzrKJ4m8vPTo2asXBex-1">
          <mxGeometry x="880" y="120" width="30" height="30" as="geometry" />
        </mxCell>
        <mxCell id="2Bqv3pDrQlow7ZfSbJFv-11" value="IAM Role" style="sketch=0;outlineConnect=0;fontColor=#232F3E;gradientColor=none;fillColor=#DD344C;strokeColor=none;dashed=0;verticalLabelPosition=bottom;verticalAlign=top;align=center;html=1;fontSize=12;fontStyle=0;pointerEvents=1;shape=mxgraph.aws4.role;strokeWidth=2;" vertex="1" parent="lvzrKJ4m8vPTo2asXBex-1">
          <mxGeometry x="940" y="160" width="40" height="40" as="geometry" />
        </mxCell>
        <mxCell id="2Bqv3pDrQlow7ZfSbJFv-12" value="&amp;nbsp; &amp;nbsp; &amp;nbsp; &amp;nbsp; &amp;nbsp; &amp;nbsp; &amp;nbsp; Prod AWS Account" style="rounded=0;whiteSpace=wrap;html=1;fillColor=none;verticalAlign=top;align=left;strokeWidth=2;" vertex="1" parent="lvzrKJ4m8vPTo2asXBex-1">
          <mxGeometry x="880" y="400" width="160" height="120" as="geometry" />
        </mxCell>
        <mxCell id="2Bqv3pDrQlow7ZfSbJFv-13" value="" style="sketch=0;outlineConnect=0;fontColor=#232F3E;gradientColor=none;fillColor=#E7157B;strokeColor=none;dashed=0;verticalLabelPosition=bottom;verticalAlign=top;align=center;html=1;fontSize=12;fontStyle=0;aspect=fixed;pointerEvents=1;shape=mxgraph.aws4.organizations_account2;strokeWidth=2;" vertex="1" parent="lvzrKJ4m8vPTo2asXBex-1">
          <mxGeometry x="880" y="400" width="30" height="30" as="geometry" />
        </mxCell>
        <mxCell id="2Bqv3pDrQlow7ZfSbJFv-14" value="IAM Role" style="sketch=0;outlineConnect=0;fontColor=#232F3E;gradientColor=none;fillColor=#DD344C;strokeColor=none;dashed=0;verticalLabelPosition=bottom;verticalAlign=top;align=center;html=1;fontSize=12;fontStyle=0;pointerEvents=1;shape=mxgraph.aws4.role;strokeWidth=2;" vertex="1" parent="lvzrKJ4m8vPTo2asXBex-1">
          <mxGeometry x="940" y="440" width="40" height="40" as="geometry" />
        </mxCell>
        <mxCell id="2Bqv3pDrQlow7ZfSbJFv-15" value="Assume" style="edgeStyle=orthogonalEdgeStyle;rounded=0;orthogonalLoop=1;jettySize=auto;html=1;strokeWidth=2;" edge="1" parent="lvzrKJ4m8vPTo2asXBex-1" source="lvzrKJ4m8vPTo2asXBex-8" target="2Bqv3pDrQlow7ZfSbJFv-4">
          <mxGeometry relative="1" as="geometry" />
        </mxCell>
      </root>
    </mxGraphModel>
  </diagram>
  <diagram name="Multiple Repositories" id="2_c_lbq6BzsGOM3oVmrl">
    <mxGraphModel dx="1017" dy="767" grid="1" gridSize="10" guides="1" tooltips="1" connect="1" arrows="1" fold="1" page="1" pageScale="1" pageWidth="850" pageHeight="1100" math="0" shadow="0">
      <root>
        <mxCell id="9uPk034OKpbOKZfBvIEi-0" />
        <mxCell id="9uPk034OKpbOKZfBvIEi-1" parent="9uPk034OKpbOKZfBvIEi-0" />
        <mxCell id="9uPk034OKpbOKZfBvIEi-2" value="&amp;nbsp; &amp;nbsp; &amp;nbsp; &amp;nbsp; &amp;nbsp; &amp;nbsp; &amp;nbsp; DevOps AWS Account" style="rounded=0;whiteSpace=wrap;html=1;fillColor=none;verticalAlign=top;align=left;strokeWidth=2;" vertex="1" parent="9uPk034OKpbOKZfBvIEi-1">
          <mxGeometry x="480" y="120" width="200" height="400" as="geometry" />
        </mxCell>
        <mxCell id="9uPk034OKpbOKZfBvIEi-3" value="&amp;nbsp; &amp;nbsp; &amp;nbsp; &amp;nbsp; &amp;nbsp; &amp;nbsp; &amp;nbsp; GitHub" style="rounded=0;whiteSpace=wrap;html=1;fillColor=none;strokeWidth=2;verticalAlign=top;align=left;" vertex="1" parent="9uPk034OKpbOKZfBvIEi-1">
          <mxGeometry x="80" y="120" width="280" height="400" as="geometry" />
        </mxCell>
        <mxCell id="9uPk034OKpbOKZfBvIEi-4" value="" style="sketch=0;outlineConnect=0;fontColor=#232F3E;gradientColor=none;fillColor=#E7157B;strokeColor=none;dashed=0;verticalLabelPosition=bottom;verticalAlign=top;align=center;html=1;fontSize=12;fontStyle=0;aspect=fixed;pointerEvents=1;shape=mxgraph.aws4.organizations_account2;strokeWidth=2;" vertex="1" parent="9uPk034OKpbOKZfBvIEi-1">
          <mxGeometry x="480" y="120" width="40" height="40" as="geometry" />
        </mxCell>
        <mxCell id="9uPk034OKpbOKZfBvIEi-5" value="" style="dashed=0;outlineConnect=0;html=1;align=center;labelPosition=center;verticalLabelPosition=bottom;verticalAlign=top;shape=mxgraph.weblogos.github;strokeWidth=2;" vertex="1" parent="9uPk034OKpbOKZfBvIEi-1">
          <mxGeometry x="80" y="120" width="40" height="40" as="geometry" />
        </mxCell>
        <mxCell id="9uPk034OKpbOKZfBvIEi-10" value="Role1" style="sketch=0;outlineConnect=0;fontColor=#232F3E;gradientColor=none;fillColor=#DD344C;strokeColor=none;dashed=0;verticalLabelPosition=bottom;verticalAlign=top;align=center;html=1;fontSize=12;fontStyle=0;pointerEvents=1;shape=mxgraph.aws4.role;strokeWidth=2;" vertex="1" parent="9uPk034OKpbOKZfBvIEi-1">
          <mxGeometry x="560" y="160" width="40" height="40" as="geometry" />
        </mxCell>
        <mxCell id="RSkz9Sa9zugmBPosp9gi-13" style="edgeStyle=orthogonalEdgeStyle;rounded=0;orthogonalLoop=1;jettySize=auto;html=1;" edge="1" parent="9uPk034OKpbOKZfBvIEi-1" source="9uPk034OKpbOKZfBvIEi-14" target="9uPk034OKpbOKZfBvIEi-10">
          <mxGeometry relative="1" as="geometry" />
        </mxCell>
        <mxCell id="9uPk034OKpbOKZfBvIEi-14" value="Repo 1" style="shape=image;verticalLabelPosition=bottom;labelBackgroundColor=default;verticalAlign=top;imageAspect=0;editableCssRules=.*;image=data:image/svg+xml,PHN2ZyB4bWxucz0iaHR0cDovL3d3dy53My5vcmcvMjAwMC9zdmciIHZpZXdCb3g9IjQuMDI5ODE1MTk2OTkwOTY3IDAgNTUuOTMwMzcwMzMwODEwNTUgNjQiIHdpZHRoPSI1NS45MzAzNzAzMzA4MTA1NSIgaGVpZ2h0PSI2NCI+PHBhdGggZD0iTTQuMTUgMGg1NS43OGwuMDMgNTUuNDlxLjAxLjUxLS41MS41MUgzMi41MWEuNTIuNTEtODkuNCAwIDAtLjUxLjUxTDMxLjk1IDY0aC0zLjgybC0zLjc0LTMuN2EuNS41IDAgMCAwLS43MSAwbC0zLjcgMy43SDE2bC4wMS03LjJxMC0uOC0uOC0uOEg0LjU1cS0uNTMgMC0uNTItLjUzTDQuMTUgMFpNNTIgOS4wMUExLjAxIDEuMDEgMCAwIDAgNTAuOTkgOEgxNy4wMUExLjAxIDEuMDEgMCAwIDAgMTYgOS4wMXYzNy45OEExLjAxIDEuMDEgMCAwIDAgMTcuMDEgNDhoMzMuOThBMS4wMSAxLjAxIDAgMCAwIDUyIDQ2Ljk5VjkuMDFaIi8+PGNpcmNsZSByPSIzLjk3IiBjeT0iMTYuMDMiIGN4PSIyMy45OSIvPjxjaXJjbGUgcj0iMy45NyIgY3k9IjI4LjAxIiBjeD0iMjQuMDEiLz48Y2lyY2xlIHI9IjMuOTYiIGN5PSIzOS45OSIgY3g9IjI0Ii8+PC9zdmc+;strokeWidth=2;" vertex="1" parent="9uPk034OKpbOKZfBvIEi-1">
          <mxGeometry x="200" y="160" width="40" height="40" as="geometry" />
        </mxCell>
        <mxCell id="9uPk034OKpbOKZfBvIEi-16" value="Multiple GitHub Repositories" style="text;html=1;align=center;verticalAlign=middle;whiteSpace=wrap;rounded=0;fillColor=#f5f5f5;fontColor=#333333;strokeColor=#666666;strokeWidth=2;fontStyle=1" vertex="1" parent="9uPk034OKpbOKZfBvIEi-1">
          <mxGeometry x="80" y="40" width="600" height="40" as="geometry" />
        </mxCell>
        <mxCell id="RSkz9Sa9zugmBPosp9gi-14" style="edgeStyle=orthogonalEdgeStyle;rounded=0;orthogonalLoop=1;jettySize=auto;html=1;" edge="1" parent="9uPk034OKpbOKZfBvIEi-1" source="RSkz9Sa9zugmBPosp9gi-0" target="RSkz9Sa9zugmBPosp9gi-10">
          <mxGeometry relative="1" as="geometry" />
        </mxCell>
        <mxCell id="RSkz9Sa9zugmBPosp9gi-0" value="Repo 2" style="shape=image;verticalLabelPosition=bottom;labelBackgroundColor=default;verticalAlign=top;imageAspect=0;editableCssRules=.*;image=data:image/svg+xml,PHN2ZyB4bWxucz0iaHR0cDovL3d3dy53My5vcmcvMjAwMC9zdmciIHZpZXdCb3g9IjQuMDI5ODE1MTk2OTkwOTY3IDAgNTUuOTMwMzcwMzMwODEwNTUgNjQiIHdpZHRoPSI1NS45MzAzNzAzMzA4MTA1NSIgaGVpZ2h0PSI2NCI+PHBhdGggZD0iTTQuMTUgMGg1NS43OGwuMDMgNTUuNDlxLjAxLjUxLS41MS41MUgzMi41MWEuNTIuNTEtODkuNCAwIDAtLjUxLjUxTDMxLjk1IDY0aC0zLjgybC0zLjc0LTMuN2EuNS41IDAgMCAwLS43MSAwbC0zLjcgMy43SDE2bC4wMS03LjJxMC0uOC0uOC0uOEg0LjU1cS0uNTMgMC0uNTItLjUzTDQuMTUgMFpNNTIgOS4wMUExLjAxIDEuMDEgMCAwIDAgNTAuOTkgOEgxNy4wMUExLjAxIDEuMDEgMCAwIDAgMTYgOS4wMXYzNy45OEExLjAxIDEuMDEgMCAwIDAgMTcuMDEgNDhoMzMuOThBMS4wMSAxLjAxIDAgMCAwIDUyIDQ2Ljk5VjkuMDFaIi8+PGNpcmNsZSByPSIzLjk3IiBjeT0iMTYuMDMiIGN4PSIyMy45OSIvPjxjaXJjbGUgcj0iMy45NyIgY3k9IjI4LjAxIiBjeD0iMjQuMDEiLz48Y2lyY2xlIHI9IjMuOTYiIGN5PSIzOS45OSIgY3g9IjI0Ii8+PC9zdmc+;strokeWidth=2;" vertex="1" parent="9uPk034OKpbOKZfBvIEi-1">
          <mxGeometry x="200" y="240" width="40" height="40" as="geometry" />
        </mxCell>
        <mxCell id="RSkz9Sa9zugmBPosp9gi-1" value="Repo 3" style="shape=image;verticalLabelPosition=bottom;labelBackgroundColor=default;verticalAlign=top;imageAspect=0;editableCssRules=.*;image=data:image/svg+xml,PHN2ZyB4bWxucz0iaHR0cDovL3d3dy53My5vcmcvMjAwMC9zdmciIHZpZXdCb3g9IjQuMDI5ODE1MTk2OTkwOTY3IDAgNTUuOTMwMzcwMzMwODEwNTUgNjQiIHdpZHRoPSI1NS45MzAzNzAzMzA4MTA1NSIgaGVpZ2h0PSI2NCI+PHBhdGggZD0iTTQuMTUgMGg1NS43OGwuMDMgNTUuNDlxLjAxLjUxLS41MS41MUgzMi41MWEuNTIuNTEtODkuNCAwIDAtLjUxLjUxTDMxLjk1IDY0aC0zLjgybC0zLjc0LTMuN2EuNS41IDAgMCAwLS43MSAwbC0zLjcgMy43SDE2bC4wMS03LjJxMC0uOC0uOC0uOEg0LjU1cS0uNTMgMC0uNTItLjUzTDQuMTUgMFpNNTIgOS4wMUExLjAxIDEuMDEgMCAwIDAgNTAuOTkgOEgxNy4wMUExLjAxIDEuMDEgMCAwIDAgMTYgOS4wMXYzNy45OEExLjAxIDEuMDEgMCAwIDAgMTcuMDEgNDhoMzMuOThBMS4wMSAxLjAxIDAgMCAwIDUyIDQ2Ljk5VjkuMDFaIi8+PGNpcmNsZSByPSIzLjk3IiBjeT0iMTYuMDMiIGN4PSIyMy45OSIvPjxjaXJjbGUgcj0iMy45NyIgY3k9IjI4LjAxIiBjeD0iMjQuMDEiLz48Y2lyY2xlIHI9IjMuOTYiIGN5PSIzOS45OSIgY3g9IjI0Ii8+PC9zdmc+;strokeWidth=2;" vertex="1" parent="9uPk034OKpbOKZfBvIEi-1">
          <mxGeometry x="140" y="340" width="40" height="40" as="geometry" />
        </mxCell>
        <mxCell id="RSkz9Sa9zugmBPosp9gi-2" value="Repo 4" style="shape=image;verticalLabelPosition=bottom;labelBackgroundColor=default;verticalAlign=top;imageAspect=0;editableCssRules=.*;image=data:image/svg+xml,PHN2ZyB4bWxucz0iaHR0cDovL3d3dy53My5vcmcvMjAwMC9zdmciIHZpZXdCb3g9IjQuMDI5ODE1MTk2OTkwOTY3IDAgNTUuOTMwMzcwMzMwODEwNTUgNjQiIHdpZHRoPSI1NS45MzAzNzAzMzA4MTA1NSIgaGVpZ2h0PSI2NCI+PHBhdGggZD0iTTQuMTUgMGg1NS43OGwuMDMgNTUuNDlxLjAxLjUxLS41MS41MUgzMi41MWEuNTIuNTEtODkuNCAwIDAtLjUxLjUxTDMxLjk1IDY0aC0zLjgybC0zLjc0LTMuN2EuNS41IDAgMCAwLS43MSAwbC0zLjcgMy43SDE2bC4wMS03LjJxMC0uOC0uOC0uOEg0LjU1cS0uNTMgMC0uNTItLjUzTDQuMTUgMFpNNTIgOS4wMUExLjAxIDEuMDEgMCAwIDAgNTAuOTkgOEgxNy4wMUExLjAxIDEuMDEgMCAwIDAgMTYgOS4wMXYzNy45OEExLjAxIDEuMDEgMCAwIDAgMTcuMDEgNDhoMzMuOThBMS4wMSAxLjAxIDAgMCAwIDUyIDQ2Ljk5VjkuMDFaIi8+PGNpcmNsZSByPSIzLjk3IiBjeT0iMTYuMDMiIGN4PSIyMy45OSIvPjxjaXJjbGUgcj0iMy45NyIgY3k9IjI4LjAxIiBjeD0iMjQuMDEiLz48Y2lyY2xlIHI9IjMuOTYiIGN5PSIzOS45OSIgY3g9IjI0Ii8+PC9zdmc+;strokeWidth=2;" vertex="1" parent="9uPk034OKpbOKZfBvIEi-1">
          <mxGeometry x="200" y="340" width="40" height="40" as="geometry" />
        </mxCell>
        <mxCell id="RSkz9Sa9zugmBPosp9gi-3" value="Repo 5" style="shape=image;verticalLabelPosition=bottom;labelBackgroundColor=default;verticalAlign=top;imageAspect=0;editableCssRules=.*;image=data:image/svg+xml,PHN2ZyB4bWxucz0iaHR0cDovL3d3dy53My5vcmcvMjAwMC9zdmciIHZpZXdCb3g9IjQuMDI5ODE1MTk2OTkwOTY3IDAgNTUuOTMwMzcwMzMwODEwNTUgNjQiIHdpZHRoPSI1NS45MzAzNzAzMzA4MTA1NSIgaGVpZ2h0PSI2NCI+PHBhdGggZD0iTTQuMTUgMGg1NS43OGwuMDMgNTUuNDlxLjAxLjUxLS41MS41MUgzMi41MWEuNTIuNTEtODkuNCAwIDAtLjUxLjUxTDMxLjk1IDY0aC0zLjgybC0zLjc0LTMuN2EuNS41IDAgMCAwLS43MSAwbC0zLjcgMy43SDE2bC4wMS03LjJxMC0uOC0uOC0uOEg0LjU1cS0uNTMgMC0uNTItLjUzTDQuMTUgMFpNNTIgOS4wMUExLjAxIDEuMDEgMCAwIDAgNTAuOTkgOEgxNy4wMUExLjAxIDEuMDEgMCAwIDAgMTYgOS4wMXYzNy45OEExLjAxIDEuMDEgMCAwIDAgMTcuMDEgNDhoMzMuOThBMS4wMSAxLjAxIDAgMCAwIDUyIDQ2Ljk5VjkuMDFaIi8+PGNpcmNsZSByPSIzLjk3IiBjeT0iMTYuMDMiIGN4PSIyMy45OSIvPjxjaXJjbGUgcj0iMy45NyIgY3k9IjI4LjAxIiBjeD0iMjQuMDEiLz48Y2lyY2xlIHI9IjMuOTYiIGN5PSIzOS45OSIgY3g9IjI0Ii8+PC9zdmc+;strokeWidth=2;" vertex="1" parent="9uPk034OKpbOKZfBvIEi-1">
          <mxGeometry x="260" y="340" width="40" height="40" as="geometry" />
        </mxCell>
        <mxCell id="RSkz9Sa9zugmBPosp9gi-4" value="Repo 6" style="shape=image;verticalLabelPosition=bottom;labelBackgroundColor=default;verticalAlign=top;imageAspect=0;editableCssRules=.*;image=data:image/svg+xml,PHN2ZyB4bWxucz0iaHR0cDovL3d3dy53My5vcmcvMjAwMC9zdmciIHZpZXdCb3g9IjQuMDI5ODE1MTk2OTkwOTY3IDAgNTUuOTMwMzcwMzMwODEwNTUgNjQiIHdpZHRoPSI1NS45MzAzNzAzMzA4MTA1NSIgaGVpZ2h0PSI2NCI+PHBhdGggZD0iTTQuMTUgMGg1NS43OGwuMDMgNTUuNDlxLjAxLjUxLS41MS41MUgzMi41MWEuNTIuNTEtODkuNCAwIDAtLjUxLjUxTDMxLjk1IDY0aC0zLjgybC0zLjc0LTMuN2EuNS41IDAgMCAwLS43MSAwbC0zLjcgMy43SDE2bC4wMS03LjJxMC0uOC0uOC0uOEg0LjU1cS0uNTMgMC0uNTItLjUzTDQuMTUgMFpNNTIgOS4wMUExLjAxIDEuMDEgMCAwIDAgNTAuOTkgOEgxNy4wMUExLjAxIDEuMDEgMCAwIDAgMTYgOS4wMXYzNy45OEExLjAxIDEuMDEgMCAwIDAgMTcuMDEgNDhoMzMuOThBMS4wMSAxLjAxIDAgMCAwIDUyIDQ2Ljk5VjkuMDFaIi8+PGNpcmNsZSByPSIzLjk3IiBjeT0iMTYuMDMiIGN4PSIyMy45OSIvPjxjaXJjbGUgcj0iMy45NyIgY3k9IjI4LjAxIiBjeD0iMjQuMDEiLz48Y2lyY2xlIHI9IjMuOTYiIGN5PSIzOS45OSIgY3g9IjI0Ii8+PC9zdmc+;strokeWidth=2;" vertex="1" parent="9uPk034OKpbOKZfBvIEi-1">
          <mxGeometry x="140" y="440" width="40" height="40" as="geometry" />
        </mxCell>
        <mxCell id="RSkz9Sa9zugmBPosp9gi-5" value="Repo 7" style="shape=image;verticalLabelPosition=bottom;labelBackgroundColor=default;verticalAlign=top;imageAspect=0;editableCssRules=.*;image=data:image/svg+xml,PHN2ZyB4bWxucz0iaHR0cDovL3d3dy53My5vcmcvMjAwMC9zdmciIHZpZXdCb3g9IjQuMDI5ODE1MTk2OTkwOTY3IDAgNTUuOTMwMzcwMzMwODEwNTUgNjQiIHdpZHRoPSI1NS45MzAzNzAzMzA4MTA1NSIgaGVpZ2h0PSI2NCI+PHBhdGggZD0iTTQuMTUgMGg1NS43OGwuMDMgNTUuNDlxLjAxLjUxLS41MS41MUgzMi41MWEuNTIuNTEtODkuNCAwIDAtLjUxLjUxTDMxLjk1IDY0aC0zLjgybC0zLjc0LTMuN2EuNS41IDAgMCAwLS43MSAwbC0zLjcgMy43SDE2bC4wMS03LjJxMC0uOC0uOC0uOEg0LjU1cS0uNTMgMC0uNTItLjUzTDQuMTUgMFpNNTIgOS4wMUExLjAxIDEuMDEgMCAwIDAgNTAuOTkgOEgxNy4wMUExLjAxIDEuMDEgMCAwIDAgMTYgOS4wMXYzNy45OEExLjAxIDEuMDEgMCAwIDAgMTcuMDEgNDhoMzMuOThBMS4wMSAxLjAxIDAgMCAwIDUyIDQ2Ljk5VjkuMDFaIi8+PGNpcmNsZSByPSIzLjk3IiBjeT0iMTYuMDMiIGN4PSIyMy45OSIvPjxjaXJjbGUgcj0iMy45NyIgY3k9IjI4LjAxIiBjeD0iMjQuMDEiLz48Y2lyY2xlIHI9IjMuOTYiIGN5PSIzOS45OSIgY3g9IjI0Ii8+PC9zdmc+;strokeWidth=2;" vertex="1" parent="9uPk034OKpbOKZfBvIEi-1">
          <mxGeometry x="200" y="440" width="40" height="40" as="geometry" />
        </mxCell>
        <mxCell id="RSkz9Sa9zugmBPosp9gi-6" value="Repo 8" style="shape=image;verticalLabelPosition=bottom;labelBackgroundColor=default;verticalAlign=top;imageAspect=0;editableCssRules=.*;image=data:image/svg+xml,PHN2ZyB4bWxucz0iaHR0cDovL3d3dy53My5vcmcvMjAwMC9zdmciIHZpZXdCb3g9IjQuMDI5ODE1MTk2OTkwOTY3IDAgNTUuOTMwMzcwMzMwODEwNTUgNjQiIHdpZHRoPSI1NS45MzAzNzAzMzA4MTA1NSIgaGVpZ2h0PSI2NCI+PHBhdGggZD0iTTQuMTUgMGg1NS43OGwuMDMgNTUuNDlxLjAxLjUxLS41MS41MUgzMi41MWEuNTIuNTEtODkuNCAwIDAtLjUxLjUxTDMxLjk1IDY0aC0zLjgybC0zLjc0LTMuN2EuNS41IDAgMCAwLS43MSAwbC0zLjcgMy43SDE2bC4wMS03LjJxMC0uOC0uOC0uOEg0LjU1cS0uNTMgMC0uNTItLjUzTDQuMTUgMFpNNTIgOS4wMUExLjAxIDEuMDEgMCAwIDAgNTAuOTkgOEgxNy4wMUExLjAxIDEuMDEgMCAwIDAgMTYgOS4wMXYzNy45OEExLjAxIDEuMDEgMCAwIDAgMTcuMDEgNDhoMzMuOThBMS4wMSAxLjAxIDAgMCAwIDUyIDQ2Ljk5VjkuMDFaIi8+PGNpcmNsZSByPSIzLjk3IiBjeT0iMTYuMDMiIGN4PSIyMy45OSIvPjxjaXJjbGUgcj0iMy45NyIgY3k9IjI4LjAxIiBjeD0iMjQuMDEiLz48Y2lyY2xlIHI9IjMuOTYiIGN5PSIzOS45OSIgY3g9IjI0Ii8+PC9zdmc+;strokeWidth=2;" vertex="1" parent="9uPk034OKpbOKZfBvIEi-1">
          <mxGeometry x="260" y="440" width="40" height="40" as="geometry" />
        </mxCell>
        <mxCell id="RSkz9Sa9zugmBPosp9gi-16" style="edgeStyle=orthogonalEdgeStyle;rounded=0;orthogonalLoop=1;jettySize=auto;html=1;exitX=1;exitY=0.5;exitDx=0;exitDy=0;" edge="1" parent="9uPk034OKpbOKZfBvIEi-1" source="RSkz9Sa9zugmBPosp9gi-7" target="RSkz9Sa9zugmBPosp9gi-11">
          <mxGeometry relative="1" as="geometry" />
        </mxCell>
        <mxCell id="RSkz9Sa9zugmBPosp9gi-7" value="" style="rounded=0;whiteSpace=wrap;html=1;strokeColor=default;fillColor=none;dashed=1;" vertex="1" parent="9uPk034OKpbOKZfBvIEi-1">
          <mxGeometry x="120" y="320" width="200" height="90" as="geometry" />
        </mxCell>
        <mxCell id="RSkz9Sa9zugmBPosp9gi-17" style="edgeStyle=orthogonalEdgeStyle;rounded=0;orthogonalLoop=1;jettySize=auto;html=1;exitX=1;exitY=0.5;exitDx=0;exitDy=0;" edge="1" parent="9uPk034OKpbOKZfBvIEi-1" source="RSkz9Sa9zugmBPosp9gi-8" target="RSkz9Sa9zugmBPosp9gi-12">
          <mxGeometry relative="1" as="geometry" />
        </mxCell>
        <mxCell id="RSkz9Sa9zugmBPosp9gi-8" value="" style="rounded=0;whiteSpace=wrap;html=1;strokeColor=default;fillColor=none;dashed=1;" vertex="1" parent="9uPk034OKpbOKZfBvIEi-1">
          <mxGeometry x="120" y="420" width="200" height="90" as="geometry" />
        </mxCell>
        <mxCell id="RSkz9Sa9zugmBPosp9gi-10" value="Role1" style="sketch=0;outlineConnect=0;fontColor=#232F3E;gradientColor=none;fillColor=#DD344C;strokeColor=none;dashed=0;verticalLabelPosition=bottom;verticalAlign=top;align=center;html=1;fontSize=12;fontStyle=0;pointerEvents=1;shape=mxgraph.aws4.role;strokeWidth=2;" vertex="1" parent="9uPk034OKpbOKZfBvIEi-1">
          <mxGeometry x="560" y="240" width="40" height="40" as="geometry" />
        </mxCell>
        <mxCell id="RSkz9Sa9zugmBPosp9gi-11" value="Role3" style="sketch=0;outlineConnect=0;fontColor=#232F3E;gradientColor=none;fillColor=#DD344C;strokeColor=none;dashed=0;verticalLabelPosition=bottom;verticalAlign=top;align=center;html=1;fontSize=12;fontStyle=0;pointerEvents=1;shape=mxgraph.aws4.role;strokeWidth=2;" vertex="1" parent="9uPk034OKpbOKZfBvIEi-1">
          <mxGeometry x="560" y="345" width="40" height="40" as="geometry" />
        </mxCell>
        <mxCell id="RSkz9Sa9zugmBPosp9gi-12" value="Role4" style="sketch=0;outlineConnect=0;fontColor=#232F3E;gradientColor=none;fillColor=#DD344C;strokeColor=none;dashed=0;verticalLabelPosition=bottom;verticalAlign=top;align=center;html=1;fontSize=12;fontStyle=0;pointerEvents=1;shape=mxgraph.aws4.role;strokeWidth=2;" vertex="1" parent="9uPk034OKpbOKZfBvIEi-1">
          <mxGeometry x="560" y="445" width="40" height="40" as="geometry" />
        </mxCell>
      </root>
    </mxGraphModel>
  </diagram>
</mxfile>
